<mxfile host="app.diagrams.net" agent="Mozilla/5.0 (Windows NT 10.0; Win64; x64) AppleWebKit/537.36 (KHTML, like Gecko) Chrome/134.0.0.0 Safari/537.36 Edg/134.0.0.0" version="26.2.3">
  <diagram id="C5RBs43oDa-KdzZeNtuy" name="Page-1">
    <mxGraphModel dx="1844" dy="541" grid="1" gridSize="10" guides="1" tooltips="1" connect="1" arrows="1" fold="1" page="1" pageScale="1" pageWidth="827" pageHeight="1169" math="0" shadow="0">
      <root>
        <mxCell id="WIyWlLk6GJQsqaUBKTNV-0" />
        <mxCell id="WIyWlLk6GJQsqaUBKTNV-1" parent="WIyWlLk6GJQsqaUBKTNV-0" />
        <mxCell id="1d10iEpnewoCChyBrCpx-88" value="" style="group;movable=0;resizable=0;rotatable=0;deletable=0;editable=0;locked=1;connectable=0;" vertex="1" connectable="0" parent="WIyWlLk6GJQsqaUBKTNV-1">
          <mxGeometry x="-750" y="119" width="1250" height="431" as="geometry" />
        </mxCell>
        <mxCell id="1d10iEpnewoCChyBrCpx-13" value="&lt;b&gt;&lt;i&gt;&lt;u&gt;easygo&lt;/u&gt;&lt;/i&gt;&lt;/b&gt;" style="swimlane;fontStyle=0;childLayout=stackLayout;horizontal=1;startSize=26;fillColor=#fff2cc;horizontalStack=0;resizeParent=1;resizeParentMax=0;resizeLast=0;collapsible=1;marginBottom=0;whiteSpace=wrap;html=1;strokeColor=#d6b656;movable=1;resizable=1;rotatable=1;deletable=1;editable=1;locked=0;connectable=1;" vertex="1" parent="1d10iEpnewoCChyBrCpx-88">
          <mxGeometry x="20" y="291" width="140" height="104" as="geometry" />
        </mxCell>
        <mxCell id="1d10iEpnewoCChyBrCpx-14" value="+ co_go():&amp;nbsp;void" style="text;strokeColor=#6c8ebf;fillColor=#dae8fc;align=left;verticalAlign=top;spacingLeft=4;spacingRight=4;overflow=hidden;rotatable=1;points=[[0,0.5],[1,0.5]];portConstraint=eastwest;whiteSpace=wrap;html=1;movable=1;resizable=1;deletable=1;editable=1;locked=0;connectable=1;" vertex="1" parent="1d10iEpnewoCChyBrCpx-13">
          <mxGeometry y="26" width="140" height="26" as="geometry" />
        </mxCell>
        <mxCell id="1d10iEpnewoCChyBrCpx-15" value="+ co_wait():&amp;nbsp;void" style="text;strokeColor=#6c8ebf;fillColor=#dae8fc;align=left;verticalAlign=top;spacingLeft=4;spacingRight=4;overflow=hidden;rotatable=1;points=[[0,0.5],[1,0.5]];portConstraint=eastwest;whiteSpace=wrap;html=1;movable=1;resizable=1;deletable=1;editable=1;locked=0;connectable=1;" vertex="1" parent="1d10iEpnewoCChyBrCpx-13">
          <mxGeometry y="52" width="140" height="26" as="geometry" />
        </mxCell>
        <mxCell id="1d10iEpnewoCChyBrCpx-16" value="+ sch_join():&amp;nbsp;void" style="text;strokeColor=#6c8ebf;fillColor=#dae8fc;align=left;verticalAlign=top;spacingLeft=4;spacingRight=4;overflow=hidden;rotatable=1;points=[[0,0.5],[1,0.5]];portConstraint=eastwest;whiteSpace=wrap;html=1;movable=1;resizable=1;deletable=1;editable=1;locked=0;connectable=1;" vertex="1" parent="1d10iEpnewoCChyBrCpx-13">
          <mxGeometry y="78" width="140" height="26" as="geometry" />
        </mxCell>
        <mxCell id="1d10iEpnewoCChyBrCpx-71" style="edgeStyle=orthogonalEdgeStyle;rounded=0;orthogonalLoop=1;jettySize=auto;html=1;entryX=0;entryY=0.5;entryDx=0;entryDy=0;startArrow=diamondThin;startFill=1;endArrow=open;endFill=0;curved=0;strokeWidth=2;" edge="1" parent="1d10iEpnewoCChyBrCpx-88" source="1d10iEpnewoCChyBrCpx-18" target="1d10iEpnewoCChyBrCpx-34">
          <mxGeometry relative="1" as="geometry" />
        </mxCell>
        <mxCell id="1d10iEpnewoCChyBrCpx-84" style="rounded=0;orthogonalLoop=1;jettySize=auto;html=1;entryX=0.5;entryY=1;entryDx=0;entryDy=0;strokeWidth=2;endArrow=open;endFill=0;startArrow=diamondThin;startFill=1;" edge="1" parent="1d10iEpnewoCChyBrCpx-88" source="1d10iEpnewoCChyBrCpx-18" target="1d10iEpnewoCChyBrCpx-28">
          <mxGeometry relative="1" as="geometry" />
        </mxCell>
        <mxCell id="1d10iEpnewoCChyBrCpx-18" value="&lt;b&gt;&lt;i&gt;&lt;u&gt;Scheduler&lt;/u&gt;&lt;/i&gt;&lt;/b&gt;" style="swimlane;fontStyle=0;childLayout=stackLayout;horizontal=1;startSize=26;fillColor=#fff2cc;horizontalStack=0;resizeParent=1;resizeParentMax=0;resizeLast=0;collapsible=1;marginBottom=0;whiteSpace=wrap;html=1;strokeColor=#d6b656;movable=1;resizable=1;rotatable=1;deletable=1;editable=1;locked=0;connectable=1;" vertex="1" parent="1d10iEpnewoCChyBrCpx-88">
          <mxGeometry x="300" y="291" width="140" height="104" as="geometry" />
        </mxCell>
        <mxCell id="1d10iEpnewoCChyBrCpx-19" value="+ getScheduler(): void" style="text;strokeColor=#6c8ebf;fillColor=#dae8fc;align=left;verticalAlign=top;spacingLeft=4;spacingRight=4;overflow=hidden;rotatable=1;points=[[0,0.5],[1,0.5]];portConstraint=eastwest;whiteSpace=wrap;html=1;movable=1;resizable=1;deletable=1;editable=1;locked=0;connectable=1;" vertex="1" parent="1d10iEpnewoCChyBrCpx-18">
          <mxGeometry y="26" width="140" height="26" as="geometry" />
        </mxCell>
        <mxCell id="1d10iEpnewoCChyBrCpx-20" value="+ getProcessor():&amp;nbsp;void" style="text;strokeColor=#6c8ebf;fillColor=#dae8fc;align=left;verticalAlign=top;spacingLeft=4;spacingRight=4;overflow=hidden;rotatable=1;points=[[0,0.5],[1,0.5]];portConstraint=eastwest;whiteSpace=wrap;html=1;movable=1;resizable=1;deletable=1;editable=1;locked=0;connectable=1;" vertex="1" parent="1d10iEpnewoCChyBrCpx-18">
          <mxGeometry y="52" width="140" height="26" as="geometry" />
        </mxCell>
        <mxCell id="1d10iEpnewoCChyBrCpx-21" value="+ createNewCo():&amp;nbsp;void" style="text;strokeColor=#6c8ebf;fillColor=#dae8fc;align=left;verticalAlign=top;spacingLeft=4;spacingRight=4;overflow=hidden;rotatable=1;points=[[0,0.5],[1,0.5]];portConstraint=eastwest;whiteSpace=wrap;html=1;movable=1;resizable=1;deletable=1;editable=1;locked=0;connectable=1;" vertex="1" parent="1d10iEpnewoCChyBrCpx-18">
          <mxGeometry y="78" width="140" height="26" as="geometry" />
        </mxCell>
        <mxCell id="1d10iEpnewoCChyBrCpx-28" value="&lt;b&gt;&lt;i&gt;&lt;u&gt;ProcessorSelector&lt;/u&gt;&lt;/i&gt;&lt;/b&gt;" style="swimlane;fontStyle=0;childLayout=stackLayout;horizontal=1;startSize=26;fillColor=#fff2cc;horizontalStack=0;resizeParent=1;resizeParentMax=0;resizeLast=0;collapsible=1;marginBottom=0;whiteSpace=wrap;html=1;strokeColor=#d6b656;movable=1;resizable=1;rotatable=1;deletable=1;editable=1;locked=0;connectable=1;" vertex="1" parent="1d10iEpnewoCChyBrCpx-88">
          <mxGeometry x="300" y="71" width="140" height="52" as="geometry" />
        </mxCell>
        <mxCell id="1d10iEpnewoCChyBrCpx-29" value="+ next(): Processor*" style="text;strokeColor=#6c8ebf;fillColor=#dae8fc;align=left;verticalAlign=top;spacingLeft=4;spacingRight=4;overflow=hidden;rotatable=1;points=[[0,0.5],[1,0.5]];portConstraint=eastwest;whiteSpace=wrap;html=1;movable=1;resizable=1;deletable=1;editable=1;locked=0;connectable=1;" vertex="1" parent="1d10iEpnewoCChyBrCpx-28">
          <mxGeometry y="26" width="140" height="26" as="geometry" />
        </mxCell>
        <mxCell id="1d10iEpnewoCChyBrCpx-73" style="rounded=0;orthogonalLoop=1;jettySize=auto;html=1;exitX=0.299;exitY=0.006;exitDx=0;exitDy=0;startArrow=diamondThin;startFill=1;endArrow=open;endFill=0;strokeWidth=2;exitPerimeter=0;entryX=0.466;entryY=0.949;entryDx=0;entryDy=0;entryPerimeter=0;" edge="1" parent="1d10iEpnewoCChyBrCpx-88" source="1d10iEpnewoCChyBrCpx-32" target="1d10iEpnewoCChyBrCpx-48">
          <mxGeometry relative="1" as="geometry">
            <mxPoint x="530" y="151" as="targetPoint" />
          </mxGeometry>
        </mxCell>
        <mxCell id="1d10iEpnewoCChyBrCpx-76" style="rounded=0;orthogonalLoop=1;jettySize=auto;html=1;entryX=0;entryY=0.5;entryDx=0;entryDy=0;startArrow=diamondThin;startFill=1;endArrow=open;endFill=0;strokeWidth=2;" edge="1" parent="1d10iEpnewoCChyBrCpx-88" source="1d10iEpnewoCChyBrCpx-32" target="1d10iEpnewoCChyBrCpx-63">
          <mxGeometry relative="1" as="geometry" />
        </mxCell>
        <mxCell id="1d10iEpnewoCChyBrCpx-32" value="&lt;b&gt;&lt;i&gt;&lt;u&gt;Processor&lt;/u&gt;&lt;/i&gt;&lt;/b&gt;" style="swimlane;fontStyle=0;childLayout=stackLayout;horizontal=1;startSize=26;fillColor=#fff2cc;horizontalStack=0;resizeParent=1;resizeParentMax=0;resizeLast=0;collapsible=1;marginBottom=0;whiteSpace=wrap;html=1;strokeColor=#d6b656;movable=1;resizable=1;rotatable=1;deletable=1;editable=1;locked=0;connectable=1;" vertex="1" parent="1d10iEpnewoCChyBrCpx-88">
          <mxGeometry x="650" y="278" width="140" height="130" as="geometry" />
        </mxCell>
        <mxCell id="1d10iEpnewoCChyBrCpx-33" value="+ goNewCo(): void" style="text;strokeColor=#6c8ebf;fillColor=#dae8fc;align=left;verticalAlign=top;spacingLeft=4;spacingRight=4;overflow=hidden;rotatable=1;points=[[0,0.5],[1,0.5]];portConstraint=eastwest;whiteSpace=wrap;html=1;movable=1;resizable=1;deletable=1;editable=1;locked=0;connectable=1;" vertex="1" parent="1d10iEpnewoCChyBrCpx-32">
          <mxGeometry y="26" width="140" height="26" as="geometry" />
        </mxCell>
        <mxCell id="1d10iEpnewoCChyBrCpx-34" value="+ loop():&amp;nbsp;void" style="text;strokeColor=#6c8ebf;fillColor=#dae8fc;align=left;verticalAlign=top;spacingLeft=4;spacingRight=4;overflow=hidden;rotatable=1;points=[[0,0.5],[1,0.5]];portConstraint=eastwest;whiteSpace=wrap;html=1;movable=1;resizable=1;deletable=1;editable=1;locked=0;connectable=1;" vertex="1" parent="1d10iEpnewoCChyBrCpx-32">
          <mxGeometry y="52" width="140" height="26" as="geometry" />
        </mxCell>
        <mxCell id="1d10iEpnewoCChyBrCpx-35" value="+ yield():&amp;nbsp;void" style="text;strokeColor=#6c8ebf;fillColor=#dae8fc;align=left;verticalAlign=top;spacingLeft=4;spacingRight=4;overflow=hidden;rotatable=1;points=[[0,0.5],[1,0.5]];portConstraint=eastwest;whiteSpace=wrap;html=1;movable=1;resizable=1;deletable=1;editable=1;locked=0;connectable=1;" vertex="1" parent="1d10iEpnewoCChyBrCpx-32">
          <mxGeometry y="78" width="140" height="26" as="geometry" />
        </mxCell>
        <mxCell id="1d10iEpnewoCChyBrCpx-36" value="+ resume():&amp;nbsp;void" style="text;strokeColor=#6c8ebf;fillColor=#dae8fc;align=left;verticalAlign=top;spacingLeft=4;spacingRight=4;overflow=hidden;rotatable=1;points=[[0,0.5],[1,0.5]];portConstraint=eastwest;whiteSpace=wrap;html=1;movable=1;resizable=1;deletable=1;editable=1;locked=0;connectable=1;" vertex="1" parent="1d10iEpnewoCChyBrCpx-32">
          <mxGeometry y="104" width="140" height="26" as="geometry" />
        </mxCell>
        <mxCell id="1d10iEpnewoCChyBrCpx-39" value="&lt;b&gt;&lt;i&gt;&lt;u&gt;Timer&lt;/u&gt;&lt;/i&gt;&lt;/b&gt;" style="swimlane;fontStyle=0;childLayout=stackLayout;horizontal=1;startSize=26;fillColor=#fff2cc;horizontalStack=0;resizeParent=1;resizeParentMax=0;resizeLast=0;collapsible=1;marginBottom=0;whiteSpace=wrap;html=1;strokeColor=#d6b656;movable=1;resizable=1;rotatable=1;deletable=1;editable=1;locked=0;connectable=1;" vertex="1" parent="1d10iEpnewoCChyBrCpx-88">
          <mxGeometry x="460" y="71" width="140" height="78" as="geometry" />
        </mxCell>
        <mxCell id="1d10iEpnewoCChyBrCpx-40" value="+ runAt(): void" style="text;strokeColor=#6c8ebf;fillColor=#dae8fc;align=left;verticalAlign=top;spacingLeft=4;spacingRight=4;overflow=hidden;rotatable=1;points=[[0,0.5],[1,0.5]];portConstraint=eastwest;whiteSpace=wrap;html=1;movable=1;resizable=1;deletable=1;editable=1;locked=0;connectable=1;" vertex="1" parent="1d10iEpnewoCChyBrCpx-39">
          <mxGeometry y="26" width="140" height="26" as="geometry" />
        </mxCell>
        <mxCell id="1d10iEpnewoCChyBrCpx-48" value="+ getExpiredCos(): void" style="text;strokeColor=#6c8ebf;fillColor=#dae8fc;align=left;verticalAlign=top;spacingLeft=4;spacingRight=4;overflow=hidden;rotatable=1;points=[[0,0.5],[1,0.5]];portConstraint=eastwest;whiteSpace=wrap;html=1;movable=1;resizable=1;deletable=1;editable=1;locked=0;connectable=1;" vertex="1" parent="1d10iEpnewoCChyBrCpx-39">
          <mxGeometry y="52" width="140" height="26" as="geometry" />
        </mxCell>
        <mxCell id="1d10iEpnewoCChyBrCpx-43" value="&lt;b&gt;&lt;i&gt;&lt;u&gt;Epoller&lt;/u&gt;&lt;/i&gt;&lt;/b&gt;" style="swimlane;fontStyle=0;childLayout=stackLayout;horizontal=1;startSize=26;fillColor=#fff2cc;horizontalStack=0;resizeParent=1;resizeParentMax=0;resizeLast=0;collapsible=1;marginBottom=0;whiteSpace=wrap;html=1;strokeColor=#d6b656;movable=1;resizable=1;rotatable=1;deletable=1;editable=1;locked=0;connectable=1;" vertex="1" parent="1d10iEpnewoCChyBrCpx-88">
          <mxGeometry x="640" y="61" width="160" height="130" as="geometry" />
        </mxCell>
        <mxCell id="1d10iEpnewoCChyBrCpx-44" value="+ addEvent(): void" style="text;strokeColor=#6c8ebf;fillColor=#dae8fc;align=left;verticalAlign=top;spacingLeft=4;spacingRight=4;overflow=hidden;rotatable=1;points=[[0,0.5],[1,0.5]];portConstraint=eastwest;whiteSpace=wrap;html=1;movable=1;resizable=1;deletable=1;editable=1;locked=0;connectable=1;" vertex="1" parent="1d10iEpnewoCChyBrCpx-43">
          <mxGeometry y="26" width="160" height="26" as="geometry" />
        </mxCell>
        <mxCell id="1d10iEpnewoCChyBrCpx-47" value="+ removeEvent(): void" style="text;strokeColor=#6c8ebf;fillColor=#dae8fc;align=left;verticalAlign=top;spacingLeft=4;spacingRight=4;overflow=hidden;rotatable=1;points=[[0,0.5],[1,0.5]];portConstraint=eastwest;whiteSpace=wrap;html=1;movable=1;resizable=1;deletable=1;editable=1;locked=0;connectable=1;" vertex="1" parent="1d10iEpnewoCChyBrCpx-43">
          <mxGeometry y="52" width="160" height="26" as="geometry" />
        </mxCell>
        <mxCell id="1d10iEpnewoCChyBrCpx-46" value="+ modifyEvent(): void" style="text;strokeColor=#6c8ebf;fillColor=#dae8fc;align=left;verticalAlign=top;spacingLeft=4;spacingRight=4;overflow=hidden;rotatable=1;points=[[0,0.5],[1,0.5]];portConstraint=eastwest;whiteSpace=wrap;html=1;movable=1;resizable=1;deletable=1;editable=1;locked=0;connectable=1;" vertex="1" parent="1d10iEpnewoCChyBrCpx-43">
          <mxGeometry y="78" width="160" height="26" as="geometry" />
        </mxCell>
        <mxCell id="1d10iEpnewoCChyBrCpx-45" value="+ getActiveCos(): void" style="text;strokeColor=#6c8ebf;fillColor=#dae8fc;align=left;verticalAlign=top;spacingLeft=4;spacingRight=4;overflow=hidden;rotatable=1;points=[[0,0.5],[1,0.5]];portConstraint=eastwest;whiteSpace=wrap;html=1;movable=1;resizable=1;deletable=1;editable=1;locked=0;connectable=1;" vertex="1" parent="1d10iEpnewoCChyBrCpx-43">
          <mxGeometry y="104" width="160" height="26" as="geometry" />
        </mxCell>
        <mxCell id="1d10iEpnewoCChyBrCpx-81" style="rounded=0;orthogonalLoop=1;jettySize=auto;html=1;exitX=1;exitY=0.5;exitDx=0;exitDy=0;entryX=0;entryY=0.5;entryDx=0;entryDy=0;startArrow=diamondThin;startFill=1;strokeWidth=2;endArrow=open;endFill=0;" edge="1" parent="1d10iEpnewoCChyBrCpx-88" source="1d10iEpnewoCChyBrCpx-52" target="1d10iEpnewoCChyBrCpx-55">
          <mxGeometry relative="1" as="geometry" />
        </mxCell>
        <mxCell id="1d10iEpnewoCChyBrCpx-52" value="&lt;b&gt;&lt;i&gt;&lt;u&gt;ObjPool&lt;/u&gt;&lt;/i&gt;&lt;/b&gt;" style="swimlane;fontStyle=0;childLayout=stackLayout;horizontal=1;startSize=26;fillColor=#fff2cc;horizontalStack=0;resizeParent=1;resizeParentMax=0;resizeLast=0;collapsible=1;marginBottom=0;whiteSpace=wrap;html=1;strokeColor=#d6b656;movable=1;resizable=1;rotatable=1;deletable=1;editable=1;locked=0;connectable=1;" vertex="1" parent="1d10iEpnewoCChyBrCpx-88">
          <mxGeometry x="840" y="71" width="140" height="78" as="geometry" />
        </mxCell>
        <mxCell id="1d10iEpnewoCChyBrCpx-53" value="+ newObj(): void" style="text;strokeColor=#6c8ebf;fillColor=#dae8fc;align=left;verticalAlign=top;spacingLeft=4;spacingRight=4;overflow=hidden;rotatable=1;points=[[0,0.5],[1,0.5]];portConstraint=eastwest;whiteSpace=wrap;html=1;movable=1;resizable=1;deletable=1;editable=1;locked=0;connectable=1;" vertex="1" parent="1d10iEpnewoCChyBrCpx-52">
          <mxGeometry y="26" width="140" height="26" as="geometry" />
        </mxCell>
        <mxCell id="1d10iEpnewoCChyBrCpx-54" value="+ deleteObj(): void" style="text;strokeColor=#6c8ebf;fillColor=#dae8fc;align=left;verticalAlign=top;spacingLeft=4;spacingRight=4;overflow=hidden;rotatable=1;points=[[0,0.5],[1,0.5]];portConstraint=eastwest;whiteSpace=wrap;html=1;movable=1;resizable=1;deletable=1;editable=1;locked=0;connectable=1;" vertex="1" parent="1d10iEpnewoCChyBrCpx-52">
          <mxGeometry y="52" width="140" height="26" as="geometry" />
        </mxCell>
        <mxCell id="1d10iEpnewoCChyBrCpx-55" value="&lt;b&gt;&lt;i&gt;&lt;u&gt;MemPool&lt;/u&gt;&lt;/i&gt;&lt;/b&gt;" style="swimlane;fontStyle=0;childLayout=stackLayout;horizontal=1;startSize=26;fillColor=#fff2cc;horizontalStack=0;resizeParent=1;resizeParentMax=0;resizeLast=0;collapsible=1;marginBottom=0;whiteSpace=wrap;html=1;strokeColor=#d6b656;movable=1;resizable=1;rotatable=1;deletable=1;editable=1;locked=0;connectable=1;" vertex="1" parent="1d10iEpnewoCChyBrCpx-88">
          <mxGeometry x="1050" y="71" width="160" height="78" as="geometry" />
        </mxCell>
        <mxCell id="1d10iEpnewoCChyBrCpx-56" value="+ allocateMemBlock(): void" style="text;strokeColor=#6c8ebf;fillColor=#dae8fc;align=left;verticalAlign=top;spacingLeft=4;spacingRight=4;overflow=hidden;rotatable=1;points=[[0,0.5],[1,0.5]];portConstraint=eastwest;whiteSpace=wrap;html=1;movable=1;resizable=1;deletable=1;editable=1;locked=0;connectable=1;" vertex="1" parent="1d10iEpnewoCChyBrCpx-55">
          <mxGeometry y="26" width="160" height="26" as="geometry" />
        </mxCell>
        <mxCell id="1d10iEpnewoCChyBrCpx-57" value="+ freeMemBlock(): void" style="text;strokeColor=#6c8ebf;fillColor=#dae8fc;align=left;verticalAlign=top;spacingLeft=4;spacingRight=4;overflow=hidden;rotatable=1;points=[[0,0.5],[1,0.5]];portConstraint=eastwest;whiteSpace=wrap;html=1;movable=1;resizable=1;deletable=1;editable=1;locked=0;connectable=1;" vertex="1" parent="1d10iEpnewoCChyBrCpx-55">
          <mxGeometry y="52" width="160" height="26" as="geometry" />
        </mxCell>
        <mxCell id="1d10iEpnewoCChyBrCpx-58" value="&lt;i&gt;Context&lt;/i&gt;" style="swimlane;fontStyle=1;align=center;verticalAlign=top;childLayout=stackLayout;horizontal=1;startSize=26;horizontalStack=0;resizeParent=1;resizeParentMax=0;resizeLast=0;collapsible=1;marginBottom=0;whiteSpace=wrap;html=1;fillColor=#fff2cc;strokeColor=#d6b656;" vertex="1" parent="1d10iEpnewoCChyBrCpx-88">
          <mxGeometry x="1050" y="291" width="160" height="112" as="geometry" />
        </mxCell>
        <mxCell id="1d10iEpnewoCChyBrCpx-59" value="+ context_: ucontext" style="text;strokeColor=#6c8ebf;fillColor=#dae8fc;align=left;verticalAlign=top;spacingLeft=4;spacingRight=4;overflow=hidden;rotatable=0;points=[[0,0.5],[1,0.5]];portConstraint=eastwest;whiteSpace=wrap;html=1;" vertex="1" parent="1d10iEpnewoCChyBrCpx-58">
          <mxGeometry y="26" width="160" height="26" as="geometry" />
        </mxCell>
        <mxCell id="1d10iEpnewoCChyBrCpx-60" value="" style="line;strokeWidth=1;fillColor=#dae8fc;align=left;verticalAlign=middle;spacingTop=-1;spacingLeft=3;spacingRight=3;rotatable=0;labelPosition=right;points=[];portConstraint=eastwest;strokeColor=#6c8ebf;" vertex="1" parent="1d10iEpnewoCChyBrCpx-58">
          <mxGeometry y="52" width="160" height="8" as="geometry" />
        </mxCell>
        <mxCell id="1d10iEpnewoCChyBrCpx-61" value="+ makeContext(): void" style="text;strokeColor=#6c8ebf;fillColor=#dae8fc;align=left;verticalAlign=top;spacingLeft=4;spacingRight=4;overflow=hidden;rotatable=0;points=[[0,0.5],[1,0.5]];portConstraint=eastwest;whiteSpace=wrap;html=1;" vertex="1" parent="1d10iEpnewoCChyBrCpx-58">
          <mxGeometry y="60" width="160" height="26" as="geometry" />
        </mxCell>
        <mxCell id="1d10iEpnewoCChyBrCpx-65" value="+ swapToMe(): void" style="text;strokeColor=#6c8ebf;fillColor=#dae8fc;align=left;verticalAlign=top;spacingLeft=4;spacingRight=4;overflow=hidden;rotatable=0;points=[[0,0.5],[1,0.5]];portConstraint=eastwest;whiteSpace=wrap;html=1;" vertex="1" parent="1d10iEpnewoCChyBrCpx-58">
          <mxGeometry y="86" width="160" height="26" as="geometry" />
        </mxCell>
        <mxCell id="1d10iEpnewoCChyBrCpx-80" style="rounded=0;orthogonalLoop=1;jettySize=auto;html=1;exitX=1;exitY=0.5;exitDx=0;exitDy=0;strokeWidth=2;startArrow=diamondThin;startFill=1;endArrow=open;endFill=0;" edge="1" parent="1d10iEpnewoCChyBrCpx-88" source="1d10iEpnewoCChyBrCpx-62">
          <mxGeometry relative="1" as="geometry">
            <mxPoint x="1050" y="343.1578947368422" as="targetPoint" />
          </mxGeometry>
        </mxCell>
        <mxCell id="1d10iEpnewoCChyBrCpx-62" value="&lt;b&gt;&lt;i&gt;&lt;u&gt;Coroutine&lt;/u&gt;&lt;/i&gt;&lt;/b&gt;" style="swimlane;fontStyle=0;childLayout=stackLayout;horizontal=1;startSize=26;fillColor=#fff2cc;horizontalStack=0;resizeParent=1;resizeParentMax=0;resizeLast=0;collapsible=1;marginBottom=0;whiteSpace=wrap;html=1;strokeColor=#d6b656;movable=1;resizable=1;rotatable=1;deletable=1;editable=1;locked=0;connectable=1;" vertex="1" parent="1d10iEpnewoCChyBrCpx-88">
          <mxGeometry x="850" y="304" width="140" height="78" as="geometry" />
        </mxCell>
        <mxCell id="1d10iEpnewoCChyBrCpx-63" value="+ yield(): void" style="text;strokeColor=#6c8ebf;fillColor=#dae8fc;align=left;verticalAlign=top;spacingLeft=4;spacingRight=4;overflow=hidden;rotatable=1;points=[[0,0.5],[1,0.5]];portConstraint=eastwest;whiteSpace=wrap;html=1;movable=1;resizable=1;deletable=1;editable=1;locked=0;connectable=1;" vertex="1" parent="1d10iEpnewoCChyBrCpx-62">
          <mxGeometry y="26" width="140" height="26" as="geometry" />
        </mxCell>
        <mxCell id="1d10iEpnewoCChyBrCpx-64" value="+resume(): void" style="text;strokeColor=#6c8ebf;fillColor=#dae8fc;align=left;verticalAlign=top;spacingLeft=4;spacingRight=4;overflow=hidden;rotatable=1;points=[[0,0.5],[1,0.5]];portConstraint=eastwest;whiteSpace=wrap;html=1;movable=1;resizable=1;deletable=1;editable=1;locked=0;connectable=1;" vertex="1" parent="1d10iEpnewoCChyBrCpx-62">
          <mxGeometry y="52" width="140" height="26" as="geometry" />
        </mxCell>
        <mxCell id="1d10iEpnewoCChyBrCpx-67" value="Use" style="endArrow=open;endSize=12;dashed=1;html=1;rounded=0;exitX=1;exitY=0.5;exitDx=0;exitDy=0;entryX=0;entryY=0.5;entryDx=0;entryDy=0;" edge="1" parent="1d10iEpnewoCChyBrCpx-88" source="1d10iEpnewoCChyBrCpx-13" target="1d10iEpnewoCChyBrCpx-18">
          <mxGeometry width="160" relative="1" as="geometry">
            <mxPoint x="210" y="521" as="sourcePoint" />
            <mxPoint x="370" y="521" as="targetPoint" />
          </mxGeometry>
        </mxCell>
        <mxCell id="1d10iEpnewoCChyBrCpx-74" style="rounded=0;orthogonalLoop=1;jettySize=auto;html=1;exitX=0.5;exitY=0;exitDx=0;exitDy=0;startArrow=diamondThin;startFill=1;endArrow=open;endFill=0;strokeWidth=2;entryX=0.5;entryY=1;entryDx=0;entryDy=0;" edge="1" parent="1d10iEpnewoCChyBrCpx-88" source="1d10iEpnewoCChyBrCpx-32" target="1d10iEpnewoCChyBrCpx-43">
          <mxGeometry relative="1" as="geometry">
            <mxPoint x="570" y="151" as="targetPoint" />
            <mxPoint x="725" y="278" as="sourcePoint" />
          </mxGeometry>
        </mxCell>
        <mxCell id="1d10iEpnewoCChyBrCpx-75" style="rounded=0;orthogonalLoop=1;jettySize=auto;html=1;exitX=0.75;exitY=0;exitDx=0;exitDy=0;startArrow=diamondThin;startFill=1;endArrow=open;endFill=0;strokeWidth=2;entryX=0.5;entryY=1;entryDx=0;entryDy=0;" edge="1" parent="1d10iEpnewoCChyBrCpx-88" source="1d10iEpnewoCChyBrCpx-32" target="1d10iEpnewoCChyBrCpx-52">
          <mxGeometry relative="1" as="geometry">
            <mxPoint x="760" y="191" as="targetPoint" />
            <mxPoint x="760" y="278" as="sourcePoint" />
          </mxGeometry>
        </mxCell>
        <mxCell id="1d10iEpnewoCChyBrCpx-86" value="&lt;span style=&quot;margin: 0px; padding: 0px; border: 0px; font-variant-numeric: inherit; font-variant-east-asian: inherit; font-variant-alternates: inherit; font-variant-position: inherit; font-variant-emoji: inherit; font-weight: 700; font-stretch: inherit; font-size: 14px; line-height: inherit; font-family: -apple-system, BlinkMacSystemFont, &amp;quot;Helvetica Neue&amp;quot;, Helvetica, &amp;quot;Segoe UI&amp;quot;, Arial, Roboto, &amp;quot;PingFang SC&amp;quot;, MIUI, &amp;quot;Hiragino Sans GB&amp;quot;, &amp;quot;Microsoft YaHei&amp;quot;, sans-serif; font-optical-sizing: inherit; font-size-adjust: inherit; font-kerning: inherit; font-feature-settings: inherit; font-variation-settings: inherit; vertical-align: baseline; color: rgb(6, 6, 7); letter-spacing: 0.25px; text-align: start; white-space-collapse: preserve; background-color: rgb(255, 255, 255);&quot; class=&quot;&quot;&gt;Encapsulation&lt;/span&gt;" style="shape=umlFrame;whiteSpace=wrap;html=1;pointerEvents=0;width=120;height=31;" vertex="1" parent="1d10iEpnewoCChyBrCpx-88">
          <mxGeometry x="260" width="990" height="431" as="geometry" />
        </mxCell>
        <mxCell id="1d10iEpnewoCChyBrCpx-87" value="&lt;span style=&quot;color: rgb(6, 6, 7); font-family: -apple-system, BlinkMacSystemFont, &amp;quot;Helvetica Neue&amp;quot;, Helvetica, &amp;quot;Segoe UI&amp;quot;, Arial, Roboto, &amp;quot;PingFang SC&amp;quot;, MIUI, &amp;quot;Hiragino Sans GB&amp;quot;, &amp;quot;Microsoft YaHei&amp;quot;, sans-serif; font-size: 14px; font-weight: 700; letter-spacing: 0.25px; text-align: start; white-space-collapse: preserve; background-color: rgb(255, 255, 255);&quot;&gt;api&lt;/span&gt;" style="shape=umlFrame;whiteSpace=wrap;html=1;pointerEvents=0;" vertex="1" parent="1d10iEpnewoCChyBrCpx-88">
          <mxGeometry y="247" width="180" height="164" as="geometry" />
        </mxCell>
      </root>
    </mxGraphModel>
  </diagram>
</mxfile>
